<svg width="1074" height="411" viewBox="0 0 1074 411" fill="none" xmlns="http://www.w3.org/2000/svg">
<path d="M8.06974 112.359C8.40266 111.515 9.59734 111.515 9.93026 112.359L11.6691 116.768C11.7707 117.025 11.9747 117.229 12.2325 117.331L16.6413 119.07C17.4854 119.403 17.4854 120.597 16.6413 120.93L12.2325 122.669C11.9747 122.771 11.7707 122.975 11.6691 123.232L9.93026 127.641C9.59734 128.485 8.40266 128.485 8.06974 127.641L6.33092 123.232C6.22927 122.975 6.02527 122.771 5.76755 122.669L1.35872 120.93C0.51457 120.597 0.51457 119.403 1.35872 119.07L5.76755 117.331C6.02527 117.229 6.22927 117.025 6.33092 116.768L8.06974 112.359Z" fill="white"/>
<path opacity="0.5" d="M932.07 396.359C932.403 395.515 933.597 395.515 933.93 396.359L935.386 400.05C935.488 400.308 935.692 400.512 935.95 400.614L939.641 402.07C940.485 402.403 940.485 403.597 939.641 403.93L935.95 405.386C935.692 405.488 935.488 405.692 935.386 405.95L933.93 409.641C933.597 410.485 932.403 410.485 932.07 409.641L930.614 405.95C930.512 405.692 930.308 405.488 930.05 405.386L926.359 403.93C925.515 403.597 925.515 402.403 926.359 402.07L930.05 400.614C930.308 400.512 930.512 400.308 930.614 400.05L932.07 396.359Z" fill="white"/>
<path d="M1065.07 45.3587C1065.4 44.5146 1066.6 44.5146 1066.93 45.3587L1068.39 49.0504C1068.49 49.3081 1068.69 49.5121 1068.95 49.6138L1072.64 51.0697C1073.49 51.4027 1073.49 52.5973 1072.64 52.9303L1068.95 54.3862C1068.69 54.4879 1068.49 54.6919 1068.39 54.9496L1066.93 58.6413C1066.6 59.4854 1065.4 59.4854 1065.07 58.6413L1063.61 54.9496C1063.51 54.6919 1063.31 54.4879 1063.05 54.3862L1059.36 52.9303C1058.51 52.5973 1058.51 51.4027 1059.36 51.0697L1063.05 49.6138C1063.31 49.5121 1063.51 49.3081 1063.61 49.0504L1065.07 45.3587Z" fill="white"/>
<circle cx="721" cy="6" r="5.5" stroke="white"/>
<circle cx="170" cy="343" r="3" fill="white"/>
<circle cx="304" cy="15" r="3" fill="white"/>
</svg>
